# xmcd
#
# Track frame offsets:
#	150
#	23729
#	47526
#	71671
#	90106
#	104193
#	125507
#	142039
#	155235
#	173443
#	197007
#	227422
#	245006
#	275733
#
# Disc length: 3953 seconds
#
# Revision: 3
# Processed by: cddbd v1.5.2PL0 Copyright (c) Steve Scherf et al.
# Submitted via: EZCDAudioConverter 1.3.4.1
#
DISCID=c20f6f0e
DTITLE=V/A - Out Come The Freaks! 1/3
DYEAR=2009
DGENRE=
TTITLE0=Roxy Music - Re-Make - Re-Model
TTITLE1=Eno - Baby's On Fire
TTITLE2=John Cale - Heartbreak Hotel [Live]
TTITLE3=Nice - It Has Not Taken Long
TTITLE4=Sparks - Barbecutie
TTITLE5=Betty Davis - Nasty Gal
TTITLE6=Derek and Clive - What's The Worst Job...?
TTITLE7=Eddie and The Hot Rods - Teenage Depression
TTITLE8=The Rods - Do Anything You Wanna Do
TTITLE9=Ultravox! - Hiroshima Mon Amour
TTITLE10=Steel Pulse - Ku Klux Klan
TTITLE11=The Slits - Typical Girls
TTITLE12=The B-52's - Rock Lobster
TTITLE13=Marianne Faithfull - Broken English
EXTD=
EXTT0=
EXTT1=
EXTT2=
EXTT3=
EXTT4=
EXTT5=
EXTT6=
EXTT7=
EXTT8=
EXTT9=
EXTT10=
EXTT11=
EXTT12=
EXTT13=
PLAYORDER=
